<svg xmlns="http://www.w3.org/2000/svg" viewBox="0 0 700 520"><rect width="700" height="520" fill="#a7e6ed"/><path d="M0 415q170-90 340 10t360-20v115H0" fill="#157da8"/><path d="M115 270q160-160 390-20 30-70 120-70-20 90-70 110 10 80-80 120-210 50-360-140" fill="#397dc1"/><circle cx="380" cy="245" r="12" fill="#fff"/><circle cx="383" cy="246" r="6" fill="#173a70"/><path d="M190 235q-10-80 30-120m25 95q15-75 55-105" stroke="#ffffff" stroke-width="13" stroke-linecap="round"/><path d="M0 455q150-70 310 10t390-10v65H0" fill="#095986"/></svg>
