<svg xmlns="http://www.w3.org/2000/svg" viewBox="0 0 700 520"><rect width="700" height="520" fill="#0c8d95"/><path d="M0 520V360q35-130 65 0 15-210 50 0 45-180 80 0 20-230 65 0 30-160 70 0 15-240 60 0 35-170 70 0 15-240 70 0 25-140 65 0v160" fill="#79c27e"/><g fill="#ff8ca0"><circle cx="95" cy="360" r="26"/><circle cx="215" cy="320" r="35"/><circle cx="385" cy="365" r="27"/><circle cx="550" cy="315" r="38"/></g><path d="M300 190q70-70 140 0-70 70-140 0" fill="#ffd369"/><circle cx="390" cy="177" r="9" fill="#154e67"/></svg>
